HIERARCHY
ROOT Hips
{
	OFFSET 0.000000 89.005402 0.000000
	CHANNELS 6 Xposition Yposition Zposition Xrotation Yrotation Zrotation
	JOINT Spine
	{
		OFFSET 0.116900 10.681000 0.373400
		CHANNELS 3 Xrotation Yrotation Zrotation
		JOINT Spine1
		{
			OFFSET 0.000000 13.840401 0.053500
			CHANNELS 3 Xrotation Yrotation Zrotation
			JOINT Spine2
			{
				OFFSET 0.000000 14.712700 -0.366200
				CHANNELS 3 Xrotation Yrotation Zrotation
				JOINT Neck
				{
					OFFSET 0.000000 35.415497 -3.314200
					CHANNELS 3 Xrotation Yrotation Zrotation
					JOINT Head
					{
						OFFSET 0.000000 16.899200 1.218300
						CHANNELS 3 Xrotation Yrotation Zrotation
						JOINT HeadTop_End
						{
							OFFSET 0.000000 22.206207 2.192500
							CHANNELS 3 Xrotation Yrotation Zrotation
							End Site
							{
								OFFSET 0.000000 22.314178 0.000000
							}
						}
					}
				}
				JOINT LeftShoulder
				{
					OFFSET 12.896400 26.716293 -4.548400
					CHANNELS 3 Xrotation Yrotation Zrotation
					JOINT LeftArm
					{
						OFFSET 19.027000 -4.857010 -1.718400
						CHANNELS 3 Xrotation Yrotation Zrotation
						JOINT LeftForeArm
						{
							OFFSET 24.179897 0.000000 0.000000
							CHANNELS 3 Xrotation Yrotation Zrotation
							JOINT LeftHand
							{
								OFFSET 27.156403 0.000000 0.000000
								CHANNELS 3 Xrotation Yrotation Zrotation
								JOINT LeftHandIndex1
								{
									OFFSET 16.441200 0.000000 0.000000
									CHANNELS 3 Xrotation Yrotation Zrotation
									JOINT LeftHandIndex2
									{
										OFFSET 4.821899 0.000000 0.000000
										CHANNELS 3 Xrotation Yrotation Zrotation
										JOINT LeftHandIndex3
										{
											OFFSET 6.386497 0.000000 0.000000
											CHANNELS 3 Xrotation Yrotation Zrotation
											JOINT LeftHandIndex4
											{
												OFFSET 5.188988 0.000000 0.000000
												CHANNELS 3 Xrotation Yrotation Zrotation
												End Site
												{
													OFFSET -0.178703 5.185913 0.000177
												}
											}
										}
									}
								}
								JOINT LeftHandThumb1
								{
									OFFSET 6.534897 -5.032593 5.900300
									CHANNELS 3 Xrotation Yrotation Zrotation
									JOINT LeftHandThumb2
									{
										OFFSET 3.818176 -2.204422 2.204423
										CHANNELS 3 Xrotation Yrotation Zrotation
										JOINT LeftHandThumb3
										{
											OFFSET 3.252098 -1.877594 1.877601
											CHANNELS 3 Xrotation Yrotation Zrotation
											JOINT LeftHandThumb4
											{
												OFFSET 5.251778 -3.032120 3.032117
												CHANNELS 3 Xrotation Yrotation Zrotation
												End Site
												{
													OFFSET 0.000023 6.780014 0.000000
												}
											}
										}
									}
								}
							}
						}
					}
				}
				JOINT RightShoulder
				{
					OFFSET -12.896300 26.716293 -4.548400
					CHANNELS 3 Xrotation Yrotation Zrotation
					JOINT RightArm
					{
						OFFSET -19.027000 -4.857010 -1.718400
						CHANNELS 3 Xrotation Yrotation Zrotation
						JOINT RightForeArm
						{
							OFFSET -24.179897 0.000000 0.000000
							CHANNELS 3 Xrotation Yrotation Zrotation
							JOINT RightHand
							{
								OFFSET -27.156403 0.000000 0.000000
								CHANNELS 3 Xrotation Yrotation Zrotation
								JOINT RightHandThumb1
								{
									OFFSET -6.591202 -4.852203 5.988100
									CHANNELS 3 Xrotation Yrotation Zrotation
									JOINT RightHandThumb2
									{
										OFFSET -3.818176 -2.204422 2.204423
										CHANNELS 3 Xrotation Yrotation Zrotation
										JOINT RightHandThumb3
										{
											OFFSET -3.252098 -1.877594 1.877601
											CHANNELS 3 Xrotation Yrotation Zrotation
											JOINT RightHandThumb4
											{
												OFFSET -5.251778 -3.032120 3.032117
												CHANNELS 3 Xrotation Yrotation Zrotation
												End Site
												{
													OFFSET -0.000023 6.780014 0.000000
												}
											}
										}
									}
								}
								JOINT RightHandIndex1
								{
									OFFSET -16.029404 0.000000 0.000000
									CHANNELS 3 Xrotation Yrotation Zrotation
									JOINT RightHandIndex2
									{
										OFFSET -5.213303 0.000000 0.000000
										CHANNELS 3 Xrotation Yrotation Zrotation
										JOINT RightHandIndex3
										{
											OFFSET -6.386528 0.000000 0.000000
											CHANNELS 3 Xrotation Yrotation Zrotation
											JOINT RightHandIndex4
											{
												OFFSET -5.189026 0.000000 0.000000
												CHANNELS 3 Xrotation Yrotation Zrotation
												End Site
												{
													OFFSET 0.236702 5.183624 0.001972
												}
											}
										}
									}
								}
							}
						}
					}
				}
			}
		}
	}
	JOINT LeftUpLeg
	{
		OFFSET 14.073000 -7.904099 -1.463000
		CHANNELS 3 Xrotation Yrotation Zrotation
		JOINT LeftLeg
		{
			OFFSET -0.109806 -34.073280 4.093200
			CHANNELS 3 Xrotation Yrotation Zrotation
			JOINT LeftFoot
			{
				OFFSET 0.109806 -29.899420 -6.319000
				CHANNELS 3 Xrotation Yrotation Zrotation
				JOINT LeftToeBase
				{
					OFFSET 1.551100 -14.988700 20.535801
					CHANNELS 3 Xrotation Yrotation Zrotation
					JOINT LeftToe_End
					{
						OFFSET 0.221200 0.570800 13.248301
						CHANNELS 3 Xrotation Yrotation Zrotation
						End Site
						{
							OFFSET 0.000000 13.262435 0.000000
						}
					}
				}
			}
		}
	}
	JOINT RightUpLeg
	{
		OFFSET -13.839300 -7.904099 -1.463000
		CHANNELS 3 Xrotation Yrotation Zrotation
		JOINT RightLeg
		{
			OFFSET 0.109694 -34.073219 4.093300
			CHANNELS 3 Xrotation Yrotation Zrotation
			JOINT RightFoot
			{
				OFFSET -0.109694 -29.899384 -6.319200
				CHANNELS 3 Xrotation Yrotation Zrotation
				JOINT RightToeBase
				{
					OFFSET -1.551100 -14.988700 20.535801
					CHANNELS 3 Xrotation Yrotation Zrotation
					JOINT RightToe_End
					{
						OFFSET -0.221200 0.570900 13.248299
						CHANNELS 3 Xrotation Yrotation Zrotation
						End Site
						{
							OFFSET 0.000000 13.262440 0.000000
						}
					}
				}
			}
		}
	}
}
MOTION
Frames: 5
Frame Time: 0.033333
7.618928 76.815880 -1.384274 -8.273997 -14.650354 -4.477446 14.279382 -2.045089 2.227383 1.075114 -0.426090 2.736008 1.089078 -0.350411 2.739782 17.300253 -5.616882 2.546527 -8.833596 -39.057938 12.272149 0.000000 -0.000001 -0.000000 6.623042 -33.053492 10.795639 9.684221 -31.174800 -40.524848 -0.000000 -128.025762 -0.000013 45.644016 31.965039 12.645405 0.001411 0.139694 -1.157687 0.566175 2.738937 -23.354452 0.566171 2.738937 -23.354444 -0.000003 -0.000000 -0.000000 -5.282727 7.880332 -1.921252 10.313913 2.416398 -0.342463 2.133851 39.213028 5.610608 -0.000001 -0.000003 -0.000001 0.298262 -1.075336 6.260053 -11.544685 16.888000 75.061436 0.000207 77.327748 -0.000219 -49.803564 28.543950 -24.114159 19.825358 -6.895223 2.536019 23.949722 -11.934624 11.682677 17.763963 -32.679402 -1.689192 0.000001 -0.000001 -0.000001 3.440861 -6.686232 39.134658 4.038155 -6.312195 65.186192 4.038156 -6.312192 65.186171 -0.000000 -0.000000 -0.000000 -13.468652 16.331607 31.855992 47.727067 -0.787285 -2.929873 -26.088585 -1.804211 -18.727230 -0.935028 0.000001 0.000385 -0.000000 -0.000000 -0.000000 -22.204049 -8.167096 -30.072797 29.789170 -5.460487 2.112377 14.135902 -19.987739 22.833758 -0.000048 0.000024 -0.000004 -0.000000 0.000002 0.000000 
7.154384 77.048119 -1.298092 -8.030999 -15.080837 -4.231827 14.010109 -2.867702 2.440336 1.168391 -0.531232 2.619928 1.183872 -0.460309 2.625066 17.011156 -5.611643 2.769946 -9.930007 -38.766979 11.754061 0.000000 -0.000002 0.000000 6.989941 -35.906796 10.248305 4.066080 -35.007715 -45.038728 0.000005 -123.931228 -0.000002 53.588725 32.610936 14.017532 0.001130 -0.124889 1.034918 0.465860 2.494062 -21.157303 0.465860 2.494064 -21.157319 0.000000 -0.000001 -0.000001 -5.463409 7.572676 -1.388883 9.155005 1.410701 -0.150718 2.101877 38.624590 5.569446 -0.000000 -0.000002 -0.000000 0.137521 -2.614635 6.249098 -12.443241 21.128458 75.520070 0.000075 74.629290 -0.000083 -48.461087 29.304028 -25.498614 19.830913 -6.894929 2.540986 23.924570 -12.055202 11.500555 17.760234 -32.691058 -1.703052 0.000001 -0.000000 -0.000000 3.446468 -6.683348 39.252913 4.041092 -6.313555 65.213212 4.041122 -6.313570 65.213246 0.000000 -0.000001 -0.000003 -12.654472 16.590827 31.715662 46.197706 -0.740522 -3.267945 -25.414961 -1.307991 -18.917488 -0.791544 -0.000015 0.000300 -0.000000 -0.000000 -0.000000 -22.584835 -8.267748 -29.906455 29.903815 -5.691496 2.092649 13.602554 -19.410353 22.271222 -0.000034 -0.000038 0.000001 0.000000 0.000000 0.000000 
6.693265 77.254395 -1.229694 -7.743264 -15.674497 -3.986152 13.876419 -3.799790 2.589925 1.194066 -0.654566 2.530841 1.212476 -0.586736 2.537549 16.717380 -5.568086 2.922509 -11.200113 -38.221588 11.060078 -0.000000 -0.000001 -0.000000 7.462414 -39.076236 9.915187 -2.965980 -36.854482 -49.798831 -0.000017 -118.210057 -0.000016 58.578988 32.519685 15.412843 0.000972 -0.115923 0.960609 0.469109 2.502433 -21.231805 0.469106 2.502426 -21.231804 -0.000001 -0.000001 -0.000000 -5.528245 7.660404 -1.528869 9.561153 1.740226 -0.093351 2.102646 38.638821 5.570450 -0.000003 -0.000001 0.000001 -0.005551 -4.099480 6.271245 -13.639871 25.845660 76.032068 0.000028 71.695519 -0.000045 -46.780177 30.360263 -27.248574 19.833795 -6.889643 2.545614 23.890615 -12.179382 11.298846 17.755391 -32.699404 -1.715768 0.000001 0.000001 0.000001 3.445062 -6.674769 39.337959 4.043904 -6.314822 65.238620 4.043908 -6.314830 65.238641 -0.000001 -0.000001 -0.000000 -11.962471 16.987502 31.531107 44.767577 -0.723313 -3.376138 -24.746042 -0.723999 -19.191768 -0.748762 -0.000003 0.000260 0.000000 -0.000000 -0.000000 -23.056091 -8.139215 -29.635784 30.058559 -5.617111 2.122944 13.120597 -19.203926 21.746272 -0.000076 0.000000 -0.000000 -0.000000 0.000000 0.000000 
6.230663 77.448608 -1.171087 -7.412943 -16.351557 -3.706707 13.803528 -4.875075 2.690113 1.167884 -0.799300 2.476696 1.191936 -0.733289 2.485020 16.471703 -5.482717 2.958047 -12.541847 -37.388602 10.196146 -0.000001 -0.000001 0.000001 8.020245 -42.278273 9.820309 -10.074445 -36.796275 -53.658735 -0.000058 -111.758963 -0.000078 60.954978 31.969079 16.392734 0.004123 0.238756 -1.978813 0.606163 2.829636 -24.177650 0.606161 2.829640 -24.177657 -0.000001 -0.000001 0.000002 -5.460288 8.159755 -2.378094 11.667822 3.620593 -0.294839 2.139011 39.308463 5.617279 -0.000000 0.000001 0.000001 -0.101756 -5.309795 6.375433 -14.971932 30.793160 76.530446 -0.000021 68.768564 0.000026 -44.489595 31.609316 -29.601442 19.833688 -6.878810 2.549879 23.845317 -12.300610 11.077255 17.749362 -32.704052 -1.727197 -0.000002 -0.000000 -0.000000 3.434917 -6.659282 39.379616 4.046455 -6.316016 65.261856 4.046482 -6.315994 65.261891 -0.000002 -0.000001 -0.000002 -11.302425 17.497404 31.350456 43.307880 -0.689429 -3.493342 -24.070802 -0.191421 -19.469097 -0.702345 -0.000004 0.000221 0.000000 -0.000001 -0.000000 -23.565479 -7.832963 -29.335160 30.244450 -5.624102 2.166241 12.664535 -18.978104 21.240965 -0.000053 0.000014 -0.000004 0.000000 0.000000 -0.000000 
5.747738 77.655724 -1.115417 -7.065771 -17.149791 -3.371318 13.732473 -6.034929 2.722620 1.116758 -0.955857 2.460124 1.148160 -0.890698 2.470030 16.312262 -5.352945 2.857159 -13.823570 -36.289741 9.249261 -0.000000 -0.000000 -0.000001 8.661290 -45.157464 9.999707 -16.262889 -35.491770 -55.950290 -0.000175 -105.239336 -0.000191 61.492856 31.329443 16.425563 0.063356 0.933833 -7.762475 0.924187 3.450777 -29.978158 0.924186 3.450774 -29.978168 0.000000 0.000001 0.000001 -5.288779 8.886283 -3.660632 15.022637 6.629035 -0.687419 2.193216 40.319297 5.687758 -0.000002 -0.000001 0.000000 -0.132751 -6.125650 6.606436 -16.187975 35.641703 76.890629 0.000034 66.209566 -0.000044 -41.131580 32.421798 -32.650268 19.832513 -6.861601 2.553671 23.788096 -12.411570 10.835000 17.742543 -32.708967 -1.737411 -0.000000 0.000001 -0.000001 3.414428 -6.635753 39.367728 4.048556 -6.316945 65.280865 4.048550 -6.316950 65.280844 0.000000 -0.000001 0.000001 -10.321138 18.006701 30.971049 41.494987 -0.815065 -3.735687 -23.418521 0.709575 -19.587722 -0.470743 -0.000010 -0.000002 0.000000 0.000001 0.000000 -24.204121 -7.573990 -29.042883 30.426201 -5.764138 2.118159 12.212715 -18.461433 20.659753 -0.000007 -0.000002 -0.000006 -0.000000 -0.000002 0.000000 
